<mxfile host="app.diagrams.net" modified="2021-01-07T15:12:54.021Z" agent="5.0 (Windows NT 10.0; Win64; x64) AppleWebKit/537.36 (KHTML, like Gecko) Chrome/87.0.4280.88 Safari/537.36" etag="jIXZ9ymJdQfIR0gBTqwm" version="14.1.8" type="github">
  <diagram id="Skx42vSPVDdps3SAeeb1" name="Page-1">
    <mxGraphModel dx="2249" dy="762" grid="1" gridSize="10" guides="1" tooltips="1" connect="1" arrows="1" fold="1" page="1" pageScale="1" pageWidth="827" pageHeight="1169" math="0" shadow="0">
      <root>
        <mxCell id="0" />
        <mxCell id="1" parent="0" />
        <mxCell id="J7z8JENhS1iehbA8i5uw-1" value="Système&amp;nbsp;&lt;br&gt;" style="shape=rect;html=1;verticalAlign=top;fontStyle=1;whiteSpace=wrap;align=center;" vertex="1" parent="1">
          <mxGeometry x="120" y="80" width="640" height="1030" as="geometry" />
        </mxCell>
        <mxCell id="J7z8JENhS1iehbA8i5uw-2" value="&lt;span style=&quot;font-family: &amp;#34;nunito sans&amp;#34; , sans-serif ; background-color: rgb(255 , 255 , 255)&quot;&gt;&lt;font style=&quot;font-size: 14px&quot;&gt;Internaute&lt;/font&gt;&lt;/span&gt;" style="shape=umlActor;html=1;verticalLabelPosition=bottom;verticalAlign=top;align=center;" vertex="1" parent="1">
          <mxGeometry x="10" y="240" width="30" height="60" as="geometry" />
        </mxCell>
        <mxCell id="J7z8JENhS1iehbA8i5uw-3" value="&lt;p style=&quot;margin: 0px ; margin-top: 4px ; text-align: center&quot;&gt;&amp;lt;&amp;lt;actor&amp;gt;&amp;gt;&lt;br&gt;&lt;b&gt;Système bancaire&lt;/b&gt;&lt;/p&gt;" style="shape=rect;html=1;overflow=fill;html=1;whiteSpace=wrap;align=center;" vertex="1" parent="1">
          <mxGeometry x="840" y="190" width="140" height="100" as="geometry" />
        </mxCell>
        <mxCell id="J7z8JENhS1iehbA8i5uw-5" value="Créer un compte&amp;nbsp;" style="ellipse;whiteSpace=wrap;html=1;" vertex="1" parent="1">
          <mxGeometry x="210" y="114" width="140" height="40" as="geometry" />
        </mxCell>
        <mxCell id="J7z8JENhS1iehbA8i5uw-6" value="Cherche un produit&amp;nbsp;" style="ellipse;whiteSpace=wrap;html=1;" vertex="1" parent="1">
          <mxGeometry x="220" y="180" width="140" height="45" as="geometry" />
        </mxCell>
        <mxCell id="J7z8JENhS1iehbA8i5uw-7" value="Visualiser la fiche d&#39;un produit&amp;nbsp;" style="ellipse;whiteSpace=wrap;html=1;" vertex="1" parent="1">
          <mxGeometry x="220" y="250" width="140" height="50" as="geometry" />
        </mxCell>
        <mxCell id="J7z8JENhS1iehbA8i5uw-8" value="Ajouter un produit au panier" style="ellipse;whiteSpace=wrap;html=1;" vertex="1" parent="1">
          <mxGeometry x="190" y="460" width="140" height="50" as="geometry" />
        </mxCell>
        <mxCell id="J7z8JENhS1iehbA8i5uw-9" value="Valider un panier" style="ellipse;whiteSpace=wrap;html=1;" vertex="1" parent="1">
          <mxGeometry x="180" y="330" width="140" height="50" as="geometry" />
        </mxCell>
        <mxCell id="J7z8JENhS1iehbA8i5uw-10" value="&lt;span style=&quot;font-family: &amp;#34;nunito sans&amp;#34; , sans-serif ; background-color: rgb(255 , 255 , 255)&quot;&gt;&lt;font style=&quot;font-size: 13px&quot;&gt;Saisir ses coordonnées&lt;/font&gt;&lt;/span&gt;" style="ellipse;whiteSpace=wrap;html=1;" vertex="1" parent="1">
          <mxGeometry x="190" y="395" width="140" height="50" as="geometry" />
        </mxCell>
        <mxCell id="J7z8JENhS1iehbA8i5uw-11" value="Choisir un mode de paiement&amp;nbsp;" style="ellipse;whiteSpace=wrap;html=1;" vertex="1" parent="1">
          <mxGeometry x="190" y="535" width="140" height="50" as="geometry" />
        </mxCell>
        <mxCell id="J7z8JENhS1iehbA8i5uw-12" value="" style="edgeStyle=none;html=1;endArrow=none;verticalAlign=bottom;" edge="1" parent="1">
          <mxGeometry width="160" relative="1" as="geometry">
            <mxPoint x="30" y="280" as="sourcePoint" />
            <mxPoint x="210" y="136" as="targetPoint" />
          </mxGeometry>
        </mxCell>
        <mxCell id="J7z8JENhS1iehbA8i5uw-17" value="&lt;span style=&quot;font-family: &amp;#34;nunito sans&amp;#34; , sans-serif ; font-size: 16px ; background-color: rgb(255 , 255 , 255)&quot;&gt;&amp;nbsp;S’authentifier&lt;/span&gt;" style="ellipse;whiteSpace=wrap;html=1;" vertex="1" parent="1">
          <mxGeometry x="400" y="355" width="140" height="40" as="geometry" />
        </mxCell>
        <mxCell id="J7z8JENhS1iehbA8i5uw-18" value="" style="edgeStyle=none;html=1;endArrow=none;verticalAlign=bottom;" edge="1" parent="1">
          <mxGeometry width="160" relative="1" as="geometry">
            <mxPoint x="30" y="280" as="sourcePoint" />
            <mxPoint x="220" y="200" as="targetPoint" />
          </mxGeometry>
        </mxCell>
        <mxCell id="J7z8JENhS1iehbA8i5uw-20" value="" style="edgeStyle=none;html=1;endArrow=none;verticalAlign=bottom;entryX=0;entryY=0.5;entryDx=0;entryDy=0;exitX=0.6;exitY=0.65;exitDx=0;exitDy=0;exitPerimeter=0;" edge="1" parent="1" source="J7z8JENhS1iehbA8i5uw-2" target="J7z8JENhS1iehbA8i5uw-7">
          <mxGeometry width="160" relative="1" as="geometry">
            <mxPoint x="80" y="219" as="sourcePoint" />
            <mxPoint x="240" y="219" as="targetPoint" />
          </mxGeometry>
        </mxCell>
        <mxCell id="J7z8JENhS1iehbA8i5uw-21" value="" style="edgeStyle=none;html=1;endArrow=none;verticalAlign=bottom;" edge="1" parent="1">
          <mxGeometry width="160" relative="1" as="geometry">
            <mxPoint x="40" y="280" as="sourcePoint" />
            <mxPoint x="180" y="361" as="targetPoint" />
          </mxGeometry>
        </mxCell>
        <mxCell id="J7z8JENhS1iehbA8i5uw-22" value="" style="edgeStyle=none;html=1;endArrow=none;verticalAlign=bottom;entryX=0;entryY=0.5;entryDx=0;entryDy=0;" edge="1" parent="1" target="J7z8JENhS1iehbA8i5uw-10">
          <mxGeometry width="160" relative="1" as="geometry">
            <mxPoint x="40" y="280" as="sourcePoint" />
            <mxPoint x="190" y="430" as="targetPoint" />
          </mxGeometry>
        </mxCell>
        <mxCell id="J7z8JENhS1iehbA8i5uw-23" value="" style="edgeStyle=none;html=1;endArrow=none;verticalAlign=bottom;" edge="1" parent="1">
          <mxGeometry width="160" relative="1" as="geometry">
            <mxPoint x="40" y="280" as="sourcePoint" />
            <mxPoint x="190" y="485" as="targetPoint" />
          </mxGeometry>
        </mxCell>
        <mxCell id="J7z8JENhS1iehbA8i5uw-24" value="" style="edgeStyle=none;html=1;endArrow=none;verticalAlign=bottom;" edge="1" parent="1">
          <mxGeometry width="160" relative="1" as="geometry">
            <mxPoint x="40" y="280" as="sourcePoint" />
            <mxPoint x="191" y="560.5" as="targetPoint" />
          </mxGeometry>
        </mxCell>
        <mxCell id="J7z8JENhS1iehbA8i5uw-25" value="Carte Bancaire" style="ellipse;whiteSpace=wrap;html=1;" vertex="1" parent="1">
          <mxGeometry x="400" y="480" width="140" height="50" as="geometry" />
        </mxCell>
        <mxCell id="J7z8JENhS1iehbA8i5uw-27" value="Livraison&amp;nbsp;" style="ellipse;whiteSpace=wrap;html=1;" vertex="1" parent="1">
          <mxGeometry x="400" y="580" width="140" height="50" as="geometry" />
        </mxCell>
        <mxCell id="J7z8JENhS1iehbA8i5uw-28" value="&amp;lt;&amp;lt;include&amp;gt;&amp;gt;" style="edgeStyle=none;html=1;endArrow=open;verticalAlign=bottom;dashed=1;labelBackgroundColor=none;exitX=0.921;exitY=0.32;exitDx=0;exitDy=0;exitPerimeter=0;entryX=0.021;entryY=0.72;entryDx=0;entryDy=0;entryPerimeter=0;" edge="1" parent="1" source="J7z8JENhS1iehbA8i5uw-11" target="J7z8JENhS1iehbA8i5uw-25">
          <mxGeometry width="160" relative="1" as="geometry">
            <mxPoint x="350" y="460" as="sourcePoint" />
            <mxPoint x="510" y="460" as="targetPoint" />
          </mxGeometry>
        </mxCell>
        <mxCell id="J7z8JENhS1iehbA8i5uw-29" value="&amp;lt;&amp;lt;include&amp;gt;&amp;gt;" style="edgeStyle=none;html=1;endArrow=open;verticalAlign=bottom;dashed=1;labelBackgroundColor=none;entryX=0;entryY=0.5;entryDx=0;entryDy=0;exitX=0.914;exitY=0.28;exitDx=0;exitDy=0;exitPerimeter=0;" edge="1" parent="1" source="J7z8JENhS1iehbA8i5uw-11" target="J7z8JENhS1iehbA8i5uw-27">
          <mxGeometry width="160" relative="1" as="geometry">
            <mxPoint x="330" y="550" as="sourcePoint" />
            <mxPoint x="510" y="460" as="targetPoint" />
          </mxGeometry>
        </mxCell>
        <mxCell id="J7z8JENhS1iehbA8i5uw-30" value="&amp;lt;&amp;lt;include&amp;gt;&amp;gt;" style="edgeStyle=none;html=1;endArrow=open;verticalAlign=bottom;dashed=1;labelBackgroundColor=none;exitX=1;exitY=0.5;exitDx=0;exitDy=0;entryX=0.45;entryY=0.975;entryDx=0;entryDy=0;entryPerimeter=0;" edge="1" parent="1" source="J7z8JENhS1iehbA8i5uw-8" target="J7z8JENhS1iehbA8i5uw-17">
          <mxGeometry width="160" relative="1" as="geometry">
            <mxPoint x="350" y="460" as="sourcePoint" />
            <mxPoint x="510" y="460" as="targetPoint" />
          </mxGeometry>
        </mxCell>
        <mxCell id="J7z8JENhS1iehbA8i5uw-31" value="&amp;lt;&amp;lt;include&amp;gt;&amp;gt;" style="edgeStyle=none;html=1;endArrow=open;verticalAlign=bottom;dashed=1;labelBackgroundColor=none;exitX=1;exitY=0.5;exitDx=0;exitDy=0;entryX=0.064;entryY=0.75;entryDx=0;entryDy=0;entryPerimeter=0;" edge="1" parent="1" source="J7z8JENhS1iehbA8i5uw-10" target="J7z8JENhS1iehbA8i5uw-17">
          <mxGeometry width="160" relative="1" as="geometry">
            <mxPoint x="350" y="460" as="sourcePoint" />
            <mxPoint x="510" y="460" as="targetPoint" />
          </mxGeometry>
        </mxCell>
        <mxCell id="J7z8JENhS1iehbA8i5uw-32" value="&amp;lt;&amp;lt;include&amp;gt;&amp;gt;" style="edgeStyle=none;html=1;endArrow=open;verticalAlign=bottom;dashed=1;labelBackgroundColor=none;exitX=0.95;exitY=0.68;exitDx=0;exitDy=0;exitPerimeter=0;entryX=0;entryY=0.5;entryDx=0;entryDy=0;" edge="1" parent="1" source="J7z8JENhS1iehbA8i5uw-9" target="J7z8JENhS1iehbA8i5uw-17">
          <mxGeometry width="160" relative="1" as="geometry">
            <mxPoint x="350" y="460" as="sourcePoint" />
            <mxPoint x="510" y="460" as="targetPoint" />
          </mxGeometry>
        </mxCell>
        <mxCell id="J7z8JENhS1iehbA8i5uw-34" value="&lt;span style=&quot;font-family: &amp;#34;nunito sans&amp;#34; , sans-serif ; background-color: rgb(255 , 255 , 255)&quot;&gt;&lt;font style=&quot;font-size: 13px&quot;&gt;Saisir les informations de la carte bancaire&lt;/font&gt;&lt;/span&gt;" style="ellipse;whiteSpace=wrap;html=1;" vertex="1" parent="1">
          <mxGeometry x="560" y="385" width="140" height="60" as="geometry" />
        </mxCell>
        <mxCell id="J7z8JENhS1iehbA8i5uw-35" value="&amp;lt;&amp;lt;include&amp;gt;&amp;gt;" style="edgeStyle=none;html=1;endArrow=open;verticalAlign=bottom;dashed=1;labelBackgroundColor=none;exitX=1;exitY=0.5;exitDx=0;exitDy=0;" edge="1" parent="1" source="J7z8JENhS1iehbA8i5uw-5" target="J7z8JENhS1iehbA8i5uw-17">
          <mxGeometry width="160" relative="1" as="geometry">
            <mxPoint x="340" y="470" as="sourcePoint" />
            <mxPoint x="500" y="470" as="targetPoint" />
          </mxGeometry>
        </mxCell>
        <mxCell id="J7z8JENhS1iehbA8i5uw-36" value="&amp;lt;&amp;lt;include&amp;gt;&amp;gt;" style="edgeStyle=none;html=1;endArrow=open;verticalAlign=bottom;dashed=1;labelBackgroundColor=none;exitX=1;exitY=0;exitDx=0;exitDy=0;entryX=0.114;entryY=0.733;entryDx=0;entryDy=0;entryPerimeter=0;" edge="1" parent="1" source="J7z8JENhS1iehbA8i5uw-25" target="J7z8JENhS1iehbA8i5uw-34">
          <mxGeometry width="160" relative="1" as="geometry">
            <mxPoint x="340" y="470" as="sourcePoint" />
            <mxPoint x="500" y="470" as="targetPoint" />
          </mxGeometry>
        </mxCell>
        <mxCell id="J7z8JENhS1iehbA8i5uw-37" value="" style="edgeStyle=none;html=1;endArrow=none;verticalAlign=bottom;exitX=0.629;exitY=0;exitDx=0;exitDy=0;exitPerimeter=0;entryX=0;entryY=0.5;entryDx=0;entryDy=0;" edge="1" parent="1" source="J7z8JENhS1iehbA8i5uw-34" target="J7z8JENhS1iehbA8i5uw-3">
          <mxGeometry width="160" relative="1" as="geometry">
            <mxPoint x="640" y="340" as="sourcePoint" />
            <mxPoint x="800" y="340" as="targetPoint" />
          </mxGeometry>
        </mxCell>
      </root>
    </mxGraphModel>
  </diagram>
</mxfile>
